<svg xmlns="http://www.w3.org/2000/svg" width="920" height="580" viewBox="0 0 920 580"><rect width="920" height="580" fill="#101c24"/><g font-family="sans-serif" fill="#dce9e5"><text x="30" y="35" font-size="20">KinematiX / ORIGIN X / 134028 | S-Vw4.csv | 60s outage</text><text x="30" y="58" font-size="12">training recording · endpoint drift 6.227% · RMSE 75.24m</text><polyline points="510.87,499.99 510.78,499.31 510.69,498.63 510.61,497.94 510.53,497.26 510.43,496.58 510.31,495.90 510.19,495.23 510.06,494.55 509.94,493.87 509.82,493.19 509.71,492.51 509.59,491.84 509.46,491.16 509.32,490.49 509.19,489.81 509.05,489.14 508.92,488.46 508.80,487.78 508.68,487.11 508.57,486.43 508.47,485.75 508.37,485.06 508.26,484.39 508.15,483.71 508.04,483.03 507.92,482.35 507.80,481.67 507.70,480.99 507.59,480.31 507.49,479.63 507.38,478.95 507.27,478.27 507.16,477.59 507.06,476.91 506.95,476.23 506.84,475.55 506.74,474.87 506.63,474.19 506.52,473.51 506.40,472.83 506.28,472.16 506.16,471.48 506.04,470.80 505.93,470.12 505.81,469.44 505.69,468.77 505.56,468.09 505.42,467.42 505.29,466.74 505.14,466.07 504.99,465.40 504.86,464.72 504.73,464.05 504.61,463.37 504.50,462.69 504.39,462.01 504.28,461.33 504.18,460.65 504.09,459.97 503.99,459.29 503.88,458.61 503.77,457.93 503.66,457.25 503.54,456.57 503.43,455.89 503.32,455.21 503.21,454.53 503.10,453.85 502.99,453.17 502.87,452.49 502.76,451.82 502.64,451.14 502.54,450.46 502.44,449.77 502.34,449.09 502.23,448.42 502.11,447.74 501.99,447.06 501.86,446.38 501.73,445.71 501.60,445.03 501.47,444.36 501.36,443.68 501.24,443.00 501.14,442.32 501.03,441.64 500.92,440.96 500.84,440.28 500.74,439.59 500.64,438.91 500.54,438.23 500.43,437.55 500.32,436.87 500.21,436.20 500.09,435.52 499.96,434.84 499.85,434.16 499.74,433.48 499.63,432.80 499.52,432.12 499.41,431.44 499.30,430.76 499.20,430.08 499.10,429.40 498.99,428.72 498.88,428.04 498.77,427.36 498.65,426.69 498.54,426.01 498.42,425.33 498.30,424.65 498.18,423.97 498.06,423.30 497.95,422.62 497.84,421.94 497.73,421.26 497.62,420.58 497.51,419.90 497.40,419.22 497.29,418.54 497.17,417.86 497.06,417.18 496.96,416.50 496.85,415.82 496.76,415.14 496.66,414.46 496.55,413.78 496.44,413.10 496.32,412.42 496.19,411.75 496.05,411.07 495.90,410.40 495.73,409.74 495.56,409.07 495.40,408.40 495.24,407.73 495.08,407.06 494.93,406.39 494.79,405.71 494.65,405.04 494.49,404.37 494.32,403.70 494.15,403.04 493.98,402.37 493.83,401.70 493.68,401.03 493.53,400.36 493.37,399.68 493.22,399.01 493.05,398.35 492.89,397.68 492.72,397.01 492.57,396.34 492.42,395.67 492.28,394.99 492.13,394.32 491.98,393.65 491.83,392.98 491.68,392.31 491.54,391.63 491.40,390.96 491.26,390.29 491.11,389.61 490.98,388.94 490.84,388.26 490.70,387.59 490.55,386.92 490.41,386.24 490.26,385.57 490.11,384.90 489.96,384.23 489.82,383.55 489.69,382.88 489.54,382.21 489.39,381.53 489.24,380.86 489.09,380.19 488.93,379.52 488.77,378.85 488.62,378.18 488.46,377.51 488.31,376.84 488.16,376.17 488.00,375.50 487.84,374.83 487.69,374.16 487.52,373.49 487.36,372.82 487.22,372.15 487.07,371.48 486.93,370.80 486.80,370.13 486.66,369.45 486.54,368.78 486.41,368.10 486.29,367.42 486.17,366.74 486.05,366.07 485.91,365.39 485.77,364.72 485.63,364.04 485.51,363.37 485.40,362.69 485.28,362.01 485.15,361.33 485.02,360.66 484.89,359.98 484.76,359.31 484.63,358.63 484.50,357.95 484.38,357.28 484.26,356.60 484.14,355.92 484.01,355.24 483.88,354.57 483.75,353.89 483.62,353.22 483.49,352.54 483.38,351.86 483.28,351.18 483.17,350.50 483.04,349.83 482.92,349.15 482.80,348.47 482.68,347.79 482.57,347.11 482.45,346.44 482.31,345.76 482.18,345.09 482.04,344.41 481.90,343.74 481.76,343.06 481.62,342.39 481.46,341.72 481.32,341.05 481.17,340.37 481.02,339.70 480.86,339.03 480.69,338.37 480.52,337.70 480.35,337.03 480.19,336.36 480.03,335.69 479.87,335.03 479.72,334.35 479.58,333.68 479.44,333.00 479.30,332.33 479.14,331.66 478.97,330.99 478.80,330.33 478.62,329.66 478.43,329.00 478.22,328.35 478.01,327.69 477.81,327.03 477.62,326.37 477.43,325.71 477.24,325.05 477.04,324.39 476.85,323.73 476.66,323.07 476.48,322.40 476.30,321.74 476.12,321.07 475.95,320.41 475.78,319.74 475.61,319.07 475.43,318.41 475.25,317.74 475.09,317.08 474.94,316.40 474.78,315.73 474.62,315.06 474.47,314.39 474.31,313.72 474.16,313.05 473.97,312.39 473.79,311.73 473.60,311.06 473.42,310.40 473.23,309.74 473.04,309.08 472.85,308.41 472.68,307.75 472.52,307.08 472.36,306.41 472.21,305.74 472.06,305.07 471.90,304.40 471.75,303.73 471.59,303.05 471.44,302.38 471.26,301.72 471.08,301.06 470.89,300.39 470.69,299.74 470.48,299.08 470.29,298.42 470.10,297.76 469.93,297.09 469.73,296.43 469.53,295.77 469.33,295.11 469.14,294.45 468.93,293.80 468.71,293.14 468.51,292.49 468.30,291.83 468.09,291.18 467.86,290.53 467.65,289.87 467.44,289.22 467.21,288.57 466.97,287.92 466.74,287.27 466.53,286.62 466.31,285.96 466.08,285.32 465.85,284.67 465.64,284.01 465.44,283.35 465.25,282.69 465.05,282.03 464.88,281.37 464.70,280.70 464.52,280.04 464.34,279.37 464.17,278.71 464.00,278.04 463.82,277.37 463.65,276.71 463.47,276.04 463.28,275.38 463.09,274.72 462.89,274.06 462.69,273.40 462.50,272.74 462.31,272.08 462.13,271.42 461.95,270.75 461.80,270.08 461.65,269.41 461.51,268.74 461.36,268.06 461.20,267.40 461.03,266.73 460.85,266.06 460.67,265.40 460.49,264.74 460.29,264.08 460.09,263.42 459.89,262.76 459.70,262.10 459.51,261.44 459.30,260.78 459.10,260.12 458.92,259.46 458.73,258.80 458.54,258.13 458.36,257.47 458.18,256.80 458.01,256.14 457.85,255.47 457.68,254.80 457.51,254.14 457.33,253.47 457.15,252.81 456.96,252.14 456.78,251.48 456.59,250.82 456.39,250.16 456.18,249.51 455.96,248.85 455.73,248.21 455.49,247.56 455.27,246.91 455.05,246.26 454.83,245.60 454.63,244.94 454.43,244.29 454.24,243.62 454.06,242.96 453.87,242.30 453.67,241.64 453.46,240.99 453.24,240.33 453.02,239.68 452.80,239.03 452.59,238.37 452.38,237.72 452.17,237.06 451.97,236.40 451.76,235.75 451.54,235.10 451.30,234.45 451.06,233.81 450.82,233.16 450.57,232.52 450.32,231.88 450.07,231.24 449.83,230.59 449.60,229.95 449.36,229.30 449.13,228.65 448.90,228.00 448.69,227.35 448.49,226.69 448.31,226.02 448.14,225.36 447.96,224.69 447.75,224.04 447.54,223.38 447.33,222.73 447.12,222.07 446.91,221.41 446.70,220.76 446.49,220.10 446.28,219.45 446.08,218.79 445.87,218.13 445.66,217.48 445.45,216.82 445.23,216.17 445.03,215.51 444.83,214.86 444.62,214.20 444.42,213.54 444.22,212.88 444.00,212.23 443.78,211.58 443.55,210.93 443.32,210.28 443.09,209.63 442.87,208.98 442.66,208.32 442.45,207.67 442.24,207.01 442.04,206.35 441.85,205.69 441.67,205.03 441.49,204.36 441.31,203.70 441.13,203.03 440.95,202.37 440.75,201.71 440.54,201.06 440.34,200.40 440.15,199.74 439.97,199.07 439.79,198.41 439.61,197.74 439.45,197.07 439.27,196.41 439.06,195.75 438.86,195.10 438.65,194.44 438.46,193.78 438.27,193.12 438.10,192.45 437.94,191.78 437.77,191.11 437.60,190.45 437.42,189.78 437.23,189.12 437.04,188.46 436.86,187.80 436.67,187.13 436.50,186.47 436.32,185.80 436.13,185.14 435.93,184.48 435.74,183.82 435.56,183.16 435.39,182.49 435.20,181.83 435.03,181.16 434.88,180.49 434.72,179.82 434.54,179.16 434.36,178.49 434.18,177.83 433.99,177.17 433.77,176.51 433.57,175.86 433.37,175.20 433.18,174.53 433.00,173.87 432.83,173.20 432.67,172.54 432.49,171.87 432.30,171.21 432.10,170.55 431.89,169.89 431.67,169.24 431.46,168.59 431.26,167.93 431.06,167.27 430.87,166.61 430.66,165.95 430.43,165.30 430.21,164.65 429.99,164.00 429.79,163.34 429.59,162.68 429.40,162.02 429.20,161.36 429.00,160.70 428.80,160.05 428.59,159.39 428.36,158.74 428.14,158.09 427.93,157.43 427.71,156.78 427.48,156.13 427.26,155.48 427.05,154.82 426.84,154.17 426.63,153.51 426.43,152.86 426.22,152.20 426.01,151.54 425.81,150.89 425.61,150.23 425.39,149.58 425.18,148.92 424.99,148.26 424.78,147.60 424.58,146.95 424.37,146.29 424.17,145.63 423.96,144.97 423.75,144.32 423.54,143.66 423.32,143.01 423.09,142.36 422.86,141.72 422.63,141.07 422.40,140.42 422.15,139.78 421.91,139.13 421.68,138.48 421.46,137.83 421.24,137.18 421.03,136.52 420.83,135.86 420.62,135.21 420.40,134.56 420.20,133.90 420.01,133.24 419.82,132.57 419.63,131.91 419.45,131.25 419.26,130.59 419.06,129.93 418.85,129.27 418.65,128.62 418.44,127.96 418.24,127.30 418.03,126.65 417.84,125.98 417.65,125.32 417.44,124.67 417.23,124.01 417.02,123.36 416.81,122.70 416.58,122.05 416.35,121.40 416.12,120.75 415.90,120.10 415.66,119.46 415.41,118.81 415.17,118.17 414.94,117.52 414.71,116.87 414.49,116.22 414.27,115.57 414.08,114.91 413.89,114.25 413.68,113.59 413.47,112.94 413.27,112.28 413.09,111.61 412.88,110.96 412.65,110.31 412.43,109.66 412.21,109.00 411.98,108.36 411.74,107.71 411.49,107.07 411.24,106.43 410.98,105.79 410.70,105.16 410.43,104.53 410.15,103.90 409.88,103.27 409.63,102.63 409.37,101.99 409.12,101.35" stroke="#c68581" stroke-width="2" fill="none"/><polyline points="510.88,500.00 510.78,499.33 510.69,498.65 510.60,497.98 510.51,497.30 510.42,496.63 510.33,495.95 510.24,495.28 510.14,494.60 510.05,493.93 509.96,493.25 509.87,492.58 509.78,491.90 509.69,491.23 509.60,490.55 509.50,489.88 509.41,489.20 509.32,488.53 509.23,487.85 509.14,487.18 509.05,486.50 508.96,485.83 508.86,485.16 508.77,484.48 508.68,483.81 508.59,483.13 508.50,482.46 508.41,481.78 508.32,481.11 508.22,480.43 508.13,479.76 508.04,479.08 507.95,478.41 507.86,477.73 507.77,477.06 507.68,476.38 507.58,475.71 507.49,475.03 507.40,474.36 507.31,473.68 507.22,473.01 507.13,472.33 507.04,471.66 506.94,470.98 506.85,470.31 506.76,469.64 506.67,468.96 506.58,468.29 506.49,467.61 506.40,466.94 506.30,466.26 506.21,465.59 506.12,464.91 506.03,464.24 505.94,463.56 505.85,462.89 505.76,462.21 505.66,461.54 505.57,460.86 505.48,460.19 505.39,459.51 505.30,458.84 505.21,458.16 505.12,457.49 505.02,456.81 504.93,456.14 504.84,455.47 504.75,454.79 504.66,454.12 504.57,453.44 504.48,452.77 504.38,452.09 504.29,451.42 504.20,450.74 504.11,450.07 504.02,449.39 503.93,448.72 503.84,448.04 503.74,447.37 503.65,446.69 503.56,446.02 503.47,445.34 503.38,444.67 503.29,443.99 503.20,443.32 503.10,442.64 503.01,441.97 502.92,441.30 502.83,440.62 502.74,439.95 502.65,439.27 502.55,438.55 502.45,437.84 502.35,437.12 502.25,436.41 502.15,435.69 502.05,434.97 501.95,434.26 501.85,433.54 501.75,432.83 501.65,432.11 501.55,431.39 501.45,430.68 501.35,429.96 501.25,429.25 501.15,428.53 501.05,427.81 500.95,427.10 500.85,426.38 500.76,425.66 500.66,424.95 500.56,424.23 500.46,423.52 500.36,422.80 500.26,422.08 500.16,421.37 500.06,420.65 499.96,419.94 499.86,419.22 499.76,418.50 499.66,417.79 499.56,417.07 499.46,416.36 499.36,415.64 499.26,414.92 499.16,414.21 499.06,413.49 498.96,412.77 498.86,412.06 498.76,411.34 498.66,410.63 498.56,409.91 498.46,409.19 498.36,408.48 498.27,407.76 498.17,407.05 498.07,406.33 497.97,405.61 497.87,404.90 497.77,404.18 497.67,403.46 497.57,402.75 497.47,402.03 497.37,401.32 497.27,400.60 497.17,399.88 497.07,399.17 496.97,398.45 496.87,397.74 496.77,397.02 496.67,396.30 496.57,395.59 496.47,394.87 496.37,394.16 496.27,393.44 496.17,392.72 496.07,392.01 495.97,391.29 495.87,390.57 495.78,389.86 495.68,389.14 495.58,388.43 495.48,387.71 495.38,386.99 495.28,386.28 495.18,385.56 495.08,384.85 494.98,384.13 494.88,383.41 494.78,382.70 494.68,381.98 494.58,381.27 494.48,380.55 494.38,379.83 494.28,379.12 494.18,378.40 494.08,377.68 493.98,376.97 493.88,376.25 493.78,375.54 493.68,374.83 493.58,374.13 493.48,373.43 493.38,372.73 493.28,372.02 493.18,371.32 493.08,370.62 492.98,369.92 492.88,369.21 492.78,368.51 492.68,367.81 492.58,367.11 492.48,366.40 492.38,365.70 492.28,365.00 492.18,364.29 492.08,363.59 491.98,362.89 491.88,362.19 491.78,361.48 491.68,360.78 491.58,360.08 491.48,359.38 491.38,358.67 491.28,357.97 491.18,357.27 491.08,356.57 490.98,355.86 490.88,355.16 490.78,354.46 490.68,353.76 490.58,353.05 490.48,352.35 490.38,351.65 490.28,350.95 490.18,350.24 490.08,349.54 489.98,348.84 489.88,348.13 489.78,347.43 489.68,346.73 489.58,346.03 489.48,345.32 489.38,344.62 489.28,343.92 489.18,343.22 489.08,342.51 488.98,341.81 488.88,341.11 488.78,340.41 488.68,339.70 488.58,339.00 488.48,338.30 488.38,337.60 488.28,336.89 488.18,336.19 488.08,335.49 487.98,334.79 487.88,334.08 487.78,333.38 487.68,332.68 487.58,331.97 487.48,331.27 487.38,330.57 487.28,329.87 487.18,329.16 487.08,328.46 486.98,327.76 486.88,327.06 486.78,326.35 486.68,325.65 486.58,324.95 486.48,324.25 486.38,323.54 486.28,322.84 486.18,322.14 486.08,321.44 485.98,320.73 485.88,320.03 485.78,319.33 485.68,318.63 485.58,317.92 485.48,317.22 485.38,316.52 485.28,315.81 485.18,315.11 485.08,314.41 484.98,313.71 484.88,313.00 484.78,312.30 484.68,311.60 484.55,310.88 484.41,310.15 484.28,309.43 484.14,308.70 484.01,307.98 483.87,307.25 483.74,306.53 483.60,305.81 483.47,305.08 483.33,304.36 483.19,303.63 483.06,302.91 482.92,302.19 482.79,301.46 482.65,300.74 482.52,300.01 482.38,299.29 482.25,298.57 482.11,297.84 481.98,297.12 481.84,296.39 481.70,295.67 481.57,294.95 481.43,294.22 481.30,293.50 481.16,292.77 481.03,292.05 480.89,291.32 480.76,290.60 480.62,289.88 480.48,289.15 480.35,288.43 480.21,287.70 480.08,286.98 479.94,286.26 479.81,285.53 479.67,284.81 479.54,284.08 479.40,283.36 479.27,282.64 479.13,281.91 478.99,281.19 478.86,280.46 478.72,279.74 478.59,279.02 478.45,278.29 478.32,277.57 478.18,276.84 478.05,276.12 477.91,275.39 477.78,274.67 477.64,273.95 477.50,273.22 477.37,272.50 477.23,271.77 477.10,271.05 476.96,270.33 476.83,269.60 476.69,268.88 476.56,268.15 476.42,267.43 476.28,266.71 476.15,265.98 476.01,265.26 475.88,264.53 475.74,263.81 475.61,263.09 475.47,262.36 475.34,261.64 475.20,260.91 475.07,260.19 474.93,259.46 474.79,258.74 474.66,258.02 474.52,257.29 474.39,256.57 474.25,255.84 474.12,255.12 473.98,254.40 473.85,253.67 473.71,252.95 473.57,252.22 473.44,251.50 473.30,250.78 473.17,250.05 473.03,249.33 472.90,248.60 472.76,247.88 472.63,247.16 472.45,246.46 472.28,245.76 472.10,245.07 471.93,244.37 471.75,243.68 471.57,242.98 471.40,242.29 471.22,241.59 471.05,240.89 470.87,240.20 470.70,239.50 470.52,238.81 470.35,238.11 470.17,237.42 470.00,236.72 469.82,236.03 469.65,235.33 469.47,234.63 469.30,233.94 469.12,233.24 468.95,232.55 468.77,231.85 468.59,231.16 468.42,230.46 468.24,229.76 468.07,229.07 467.89,228.37 467.72,227.68 467.54,226.98 467.37,226.29 467.19,225.59 467.02,224.89 466.84,224.20 466.67,223.50 466.49,222.81 466.32,222.11 466.14,221.42 465.96,220.72 465.79,220.03 465.61,219.33 465.44,218.63 465.26,217.94 465.09,217.24 464.91,216.55 464.74,215.85 464.56,215.16 464.39,214.46 464.21,213.76 464.04,213.07 463.86,212.37 463.69,211.68 463.51,210.98 463.34,210.29 463.16,209.59 462.98,208.89 462.81,208.20 462.63,207.50 462.46,206.81 462.28,206.11 462.11,205.42 461.93,204.72 461.76,204.03 461.58,203.33 461.41,202.63 461.23,201.94 461.06,201.24 460.88,200.55 460.71,199.85 460.53,199.16 460.35,198.46 460.18,197.76 460.00,197.07 459.83,196.37 459.65,195.68 459.48,194.98 459.30,194.29 459.13,193.59 458.95,192.90 458.78,192.20 458.60,191.50 458.43,190.81 458.25,190.11 458.08,189.42 457.90,188.72 457.73,188.03 457.55,187.33 457.37,186.63 457.20,185.94 457.02,185.24 456.85,184.55 456.67,183.85 456.44,183.14 456.21,182.42 455.97,181.71 455.74,180.99 455.51,180.28 455.27,179.57 455.04,178.85 454.81,178.14 454.57,177.42 454.34,176.71 454.11,175.99 453.87,175.28 453.64,174.56 453.41,173.85 453.17,173.14 452.94,172.42 452.71,171.71 452.47,170.99 452.24,170.28 452.01,169.56 451.77,168.85 451.54,168.13 451.31,167.42 451.07,166.71 450.84,165.99 450.61,165.28 450.37,164.56 450.14,163.85 449.91,163.13 449.67,162.42 449.44,161.70 449.21,160.99 448.97,160.28 448.74,159.56 448.51,158.85 448.27,158.13 448.04,157.42 447.81,156.70 447.57,155.99 447.34,155.28 447.11,154.56 446.87,153.85 446.64,153.13 446.41,152.42 446.17,151.70 445.94,150.99 445.71,150.27 445.47,149.56 445.24,148.85 445.01,148.13 444.77,147.42 444.54,146.70 444.31,145.99 444.07,145.27 443.84,144.56 443.61,143.84 443.37,143.13 443.14,142.42 442.91,141.70 442.67,140.99 442.44,140.27 442.21,139.56 441.97,138.84 441.74,138.13 441.51,137.42 441.27,136.70 441.04,135.99 440.81,135.27 440.57,134.56 440.34,133.84 440.11,133.13 439.87,132.41 439.64,131.70 439.41,130.99 439.17,130.27 438.94,129.56 438.71,128.84 438.47,128.13 438.24,127.41 438.01,126.70 437.77,125.98 437.54,125.27 437.31,124.56 437.07,123.84 436.84,123.13 436.61,122.41 436.37,121.70 436.14,120.98 435.91,120.27 435.63,119.60 435.36,118.93 435.08,118.26 434.81,117.58 434.53,116.91 434.26,116.24 433.98,115.57 433.71,114.90 433.43,114.23 433.16,113.56 432.88,112.89 432.61,112.22 432.33,111.54 432.06,110.87 431.78,110.20 431.51,109.53 431.23,108.86 430.96,108.19 430.68,107.52 430.41,106.85 430.13,106.17 429.86,105.50 429.58,104.83 429.31,104.16 429.03,103.49 428.76,102.82 428.48,102.15 428.21,101.48 427.93,100.81 427.66,100.13 427.38,99.46 427.11,98.79 426.83,98.12 426.56,97.45 426.28,96.78 426.01,96.11 425.73,95.44 425.46,94.77 425.18,94.09 424.91,93.42 424.63,92.75 424.36,92.08 424.08,91.41 423.81,90.74 423.53,90.07 423.26,89.40 422.98,88.73 422.71,88.05 422.43,87.38 422.16,86.71 421.88,86.04 421.61,85.37 421.33,84.70 421.06,84.03 420.78,83.36 420.51,82.68 420.23,82.01 419.96,81.34 419.68,80.67 419.41,80.00" stroke="#86b6e9" stroke-width="2" fill="none"/><polyline points="510.87,500.00 510.78,499.32 510.69,498.64 510.61,497.96 510.53,497.29 510.44,496.61 510.33,495.94 510.21,495.28 510.09,494.61 509.97,493.95 509.85,493.28 509.74,492.61 509.62,491.95 509.50,491.28 509.37,490.62 509.23,489.97 509.10,489.31 508.97,488.66 508.85,488.01 508.73,487.34 508.62,486.68 508.52,486.03 508.42,485.36 508.32,484.69 508.21,484.03 508.10,483.34 507.98,482.66 507.87,481.98 507.75,481.29 507.65,480.60 507.54,479.91 507.43,479.22 507.32,478.53 507.21,477.84 507.10,477.15 506.99,476.45 506.88,475.76 506.78,475.06 506.67,474.37 506.55,473.67 506.43,472.98 506.31,472.28 506.19,471.59 506.07,470.89 505.95,470.20 505.83,469.50 505.71,468.81 505.58,468.13 505.45,467.45 505.32,466.76 505.18,466.09 505.03,465.43 504.89,464.81 504.77,464.19 504.66,463.55 504.55,462.92 504.45,462.29 504.34,461.65 504.25,461.01 504.16,460.37 504.07,459.73 503.97,459.09 503.87,458.46 503.76,457.82 503.66,457.19 503.55,456.55 503.44,455.91 503.34,455.28 503.24,454.65 503.14,454.02 503.03,453.39 502.93,452.76 502.82,452.12 502.72,451.47 502.62,450.81 502.52,450.10 502.40,449.40 502.29,448.71 502.16,448.03 502.04,447.34 501.91,446.65 501.78,445.95 501.64,445.24 501.51,444.52 501.39,443.80 501.27,443.07 501.15,442.34 501.04,441.61 500.94,440.89 500.84,440.16 500.73,439.45 500.63,438.74 500.52,438.04 500.41,437.33 500.29,436.63 500.17,435.93 500.04,435.23 499.92,434.52 499.80,433.80 499.68,433.07 499.57,432.37 499.46,431.67 499.35,430.99 499.24,430.31 499.14,429.66 499.04,429.01 498.95,428.38 498.85,427.77 498.74,427.15 498.64,426.52 498.53,425.90 498.42,425.27 498.30,424.63 498.19,423.99 498.08,423.35 497.97,422.70 497.87,422.05 497.76,421.40 497.66,420.73 497.55,420.07 497.44,419.40 497.33,418.73 497.22,418.06 497.11,417.39 497.01,416.71 496.91,416.04 496.81,415.37 496.71,414.69 496.60,414.01 496.49,413.34 496.36,412.65 496.22,411.96 496.07,411.28 495.91,410.62 495.75,409.98 495.59,409.32 495.45,408.73 495.30,408.13 495.14,407.47 495.01,406.85 494.87,406.19 494.72,405.54 494.57,404.92 494.41,404.30 494.25,403.67 494.10,403.05 493.95,402.41 493.81,401.79 493.67,401.16 493.53,400.53 493.37,399.91 493.22,399.29 493.07,398.67 492.91,398.04 492.77,397.42 492.64,396.80 492.50,396.19 492.37,395.56 492.22,394.92 492.08,394.26 491.95,393.63 491.79,392.90 491.64,392.17 491.48,391.44 491.33,390.72 491.19,389.99 491.03,389.26 490.88,388.53 490.72,387.80 490.56,387.07 490.40,386.35 490.25,385.62 490.09,384.90 489.94,384.18 489.80,383.47 489.64,382.77 489.49,382.07 489.33,381.36 489.17,380.66 489.00,379.96 488.84,379.25 488.67,378.54 488.51,377.84 488.35,377.14 488.19,376.44 488.03,375.74 487.87,375.04 487.70,374.34 487.53,373.64 487.37,372.95 487.22,372.25 487.07,371.55 486.93,370.85 486.79,370.15 486.66,369.46 486.53,368.77 486.41,368.08 486.28,367.39 486.16,366.69 486.02,366.00 485.88,365.31 485.74,364.64 485.61,363.95 485.49,363.27 485.38,362.58 485.25,361.89 485.12,361.20 484.98,360.51 484.85,359.83 484.72,359.15 484.59,358.46 484.46,357.76 484.34,357.07 484.22,356.38 484.09,355.69 483.96,355.01 483.83,354.32 483.69,353.63 483.56,352.93 483.44,352.22 483.32,351.51 483.21,350.80 483.09,350.10 482.96,349.40 482.83,348.70 482.71,347.99 482.59,347.28 482.46,346.58 482.33,345.87 482.19,345.18 482.05,344.47 481.91,343.78 481.76,343.08 481.62,342.38 481.46,341.69 481.31,341.00 481.16,340.32 481.01,339.65 480.86,338.99 480.70,338.34 480.53,337.70 480.37,337.06 480.21,336.42 480.05,335.77 479.89,335.12 479.74,334.47 479.60,333.81 479.47,333.17 479.34,332.53 479.19,331.89 479.04,331.26 478.87,330.63 478.71,330.00 478.53,329.37 478.34,328.75 478.14,328.13 477.94,327.51 477.75,326.87 477.56,326.24 477.38,325.59 477.19,324.95 477.00,324.32 476.82,323.69 476.64,323.05 476.46,322.42 476.29,321.78 476.13,321.15 475.96,320.51 475.80,319.87 475.63,319.23 475.46,318.60 475.29,317.94 475.14,317.29 474.99,316.65 474.84,316.00 474.69,315.36 474.54,314.72 474.39,314.07 474.24,313.49 474.08,312.91 473.91,312.33 473.75,311.75 473.59,311.18 473.43,310.63 473.27,310.06 473.11,309.49 472.96,308.92 472.82,308.34 472.69,307.75 472.56,307.15 472.42,306.55 472.28,305.96 472.15,305.37 472.01,304.77 471.86,304.18 471.71,303.60 471.54,303.02 471.36,302.41 471.16,301.77 470.97,301.13 470.79,300.49 470.61,299.83 470.43,299.17 470.23,298.52 470.03,297.85 469.84,297.18 469.64,296.52 469.42,295.86 469.21,295.20 469.01,294.54 468.80,293.88 468.58,293.23 468.36,292.57 468.15,291.92 467.94,291.28 467.71,290.64 467.47,290.00 467.25,289.35 467.04,288.69 466.82,288.04 466.59,287.39 466.37,286.73 466.16,286.06 465.97,285.39 465.78,284.75 465.58,284.06 465.40,283.37 465.21,282.68 465.02,281.99 464.84,281.28 464.66,280.59 464.48,279.91 464.30,279.23 464.12,278.55 463.93,277.87 463.74,277.20 463.54,276.52 463.33,275.84 463.13,275.17 462.94,274.51 462.76,273.84 462.58,273.18 462.41,272.51 462.26,271.84 462.13,271.21 462.00,270.58 461.86,269.98 461.70,269.34 461.54,268.71 461.37,268.08 461.20,267.45 461.02,266.84 460.83,266.22 460.65,265.62 460.46,264.98 460.27,264.34 460.08,263.69 459.88,263.05 459.69,262.41 459.51,261.76 459.33,261.11 459.14,260.44 458.96,259.78 458.78,259.10 458.61,258.42 458.44,257.74 458.27,257.05 458.09,256.38 457.90,255.69 457.72,255.01 457.53,254.34 457.34,253.67 457.14,252.99 456.93,252.32 456.72,251.68 456.49,251.03 456.26,250.38 456.03,249.73 455.80,249.05 455.58,248.37 455.37,247.73 455.17,247.08 454.98,246.44 454.81,245.80 454.63,245.16 454.44,244.52 454.24,243.88 454.03,243.25 453.82,242.61 453.60,241.98 453.39,241.35 453.18,240.71 452.98,240.07 452.78,239.42 452.58,238.78 452.37,238.14 452.14,237.51 451.91,236.87 451.67,236.24 451.43,235.62 451.18,234.98 450.93,234.33 450.68,233.66 450.44,233.00 450.20,232.33 449.95,231.66 449.71,230.98 449.49,230.30 449.27,229.61 449.08,228.93 448.90,228.24 448.71,227.55 448.51,226.87 448.29,226.20 448.07,225.52 447.86,224.85 447.65,224.17 447.43,223.50 447.22,222.84 447.01,222.17 446.80,221.50 446.59,220.83 446.38,220.17 446.16,219.52 445.95,218.86 445.74,218.21 445.54,217.54 445.33,216.87 445.12,216.20 444.91,215.52 444.70,214.87 444.48,214.22 444.26,213.58 444.04,212.94 443.82,212.32 443.61,211.71 443.40,211.09 443.19,210.45 442.99,209.80 442.78,209.16 442.59,208.52 442.42,207.87 442.24,207.23 442.07,206.57 441.89,205.92 441.71,205.26 441.53,204.61 441.32,203.97 441.12,203.33 440.94,202.69 440.76,202.04 440.58,201.39 440.40,200.73 440.24,200.07 440.07,199.41 439.87,198.76 439.68,198.13 439.48,197.51 439.28,196.86 439.10,196.20 438.94,195.60 438.79,194.99 438.64,194.38 438.49,193.78 438.33,193.18 438.17,192.59 438.00,191.99 437.83,191.39 437.66,190.79 437.50,190.19 437.34,189.59 437.18,189.00 437.01,188.40 436.83,187.81 436.66,187.20 436.50,186.59 436.33,185.98 436.17,185.37 436.02,184.75 435.87,184.11 435.70,183.43 435.52,182.75 435.33,182.07 435.14,181.38 434.93,180.70 434.71,180.03 434.51,179.36 434.31,178.68 434.12,177.99 433.94,177.30 433.76,176.61 433.59,175.93 433.40,175.26 433.21,174.61 433.02,173.98 432.81,173.36 432.61,172.76 432.41,172.15 432.23,171.54 432.05,170.93 431.86,170.31 431.65,169.68 431.43,169.05 431.22,168.41 431.01,167.77 430.82,167.13 430.62,166.47 430.43,165.83 430.24,165.19 430.04,164.53 429.83,163.88 429.62,163.25 429.40,162.61 429.19,161.96 428.97,161.29 428.73,160.60 428.50,159.91 428.27,159.21 428.05,158.52 427.83,157.82 427.61,157.13 427.40,156.45 427.18,155.77 426.97,155.09 426.76,154.42 426.54,153.74 426.33,153.07 426.12,152.40 425.91,151.71 425.70,151.03 425.49,150.34 425.28,149.67 425.06,148.98 424.84,148.30 424.63,147.62 424.41,146.95 424.18,146.28 423.94,145.61 423.70,144.96 423.47,144.30 423.23,143.66 422.99,143.02 422.76,142.36 422.53,141.71 422.31,141.06 422.09,140.40 421.89,139.74 421.68,139.09 421.48,138.46 421.27,137.82 421.08,137.18 420.90,136.55 420.72,135.91 420.54,135.27 420.35,134.61 420.16,133.95 419.95,133.29 419.75,132.63 419.54,131.96 419.33,131.30 419.13,130.64 418.93,129.98 418.74,129.33 418.54,128.67 418.33,128.02 418.12,127.37 417.91,126.70 417.68,126.04 417.45,125.39 417.22,124.72 416.99,124.06 416.76,123.40 416.52,122.76 416.27,122.12 416.03,121.47 415.80,120.80 415.56,120.10 415.34,119.45 415.12,118.76 414.92,118.07 414.71,117.39 414.50,116.70 414.28,116.02 414.09,115.33 413.89,114.66 413.66,114.00 413.44,113.36 413.23,112.73 413.00,112.07 412.76,111.43 412.52,110.79 412.27,110.14 412.02,109.52 411.75,108.88 411.48,108.28 411.21,107.68 410.95,107.08 410.70,106.49 410.47,105.89 410.23,105.30" stroke="#53dfba" stroke-width="2" fill="none"/><text x="30" y="550" font-size="12">Green: estimated · Blue: GPS reference · Coral: constant-speed baseline | Equal ENU scale, metres</text></g></svg>